<svg width="30" height="30" viewBox="0 0 30 30" fill="none" xmlns="http://www.w3.org/2000/svg">
<g id="Group">
<path id="Vector" fill-rule="evenodd" clip-rule="evenodd" d="M26.9325 6.38876C27.284 6.74037 27.4815 7.2172 27.4815 7.71438C27.4815 8.21156 27.284 8.68839 26.9325 9.04001L12.8788 23.0938C12.693 23.2795 12.4725 23.4269 12.2298 23.5274C11.9872 23.628 11.7271 23.6797 11.4644 23.6797C11.2017 23.6797 10.9416 23.628 10.6989 23.5274C10.4562 23.4269 10.2357 23.2795 10.05 23.0938L3.0675 16.1125C2.88842 15.9395 2.74558 15.7326 2.64731 15.5039C2.54905 15.2751 2.49732 15.0291 2.49516 14.7801C2.49299 14.5312 2.54043 14.2843 2.63471 14.0538C2.72899 13.8234 2.86821 13.6141 3.04426 13.438C3.22031 13.262 3.42966 13.1227 3.66009 13.0285C3.89052 12.9342 4.13742 12.8867 4.38638 12.8889C4.63534 12.8911 4.88138 12.9428 5.11014 13.0411C5.33889 13.1393 5.54579 13.2822 5.71875 13.4613L11.4638 19.2063L24.28 6.38876C24.4541 6.21452 24.6609 6.0763 24.8884 5.982C25.116 5.8877 25.3599 5.83916 25.6063 5.83916C25.8526 5.83916 26.0965 5.8877 26.3241 5.982C26.5516 6.0763 26.7584 6.21452 26.9325 6.38876Z" fill="#F4F4F4"/>
</g>
</svg>
