<svg width="27" height="27" viewBox="0 0 27 27" fill="none" xmlns="http://www.w3.org/2000/svg">
<g id="pajamas:retry" clip-path="url(#clip0_223_6)">
<path id="Vector" fill-rule="evenodd" clip-rule="evenodd" d="M12.3525 0.0488963C14.6825 -0.14994 17.0241 0.259844 19.1481 1.23811C21.272 2.21637 23.1054 3.72956 24.4688 5.62946V2.95308C24.4688 2.61742 24.6021 2.2955 24.8394 2.05815C25.0768 1.8208 25.3987 1.68746 25.7344 1.68746C26.07 1.68746 26.392 1.8208 26.6293 2.05815C26.8667 2.2955 27 2.61742 27 2.95308V10.125H19.8281C19.4925 10.125 19.1705 9.99162 18.9332 9.75427C18.6958 9.51691 18.5625 9.195 18.5625 8.85933C18.5625 8.52367 18.6958 8.20175 18.9332 7.9644C19.1705 7.72705 19.4925 7.59371 19.8281 7.59371H22.7424C21.5884 5.78792 19.9306 4.35976 17.9739 3.48564C16.0173 2.61152 13.8474 2.32973 11.7323 2.67509C9.61727 3.02045 7.64972 3.97782 6.07271 5.42895C4.49571 6.88007 3.37834 8.76137 2.85862 10.8405C2.82029 11.0038 2.74987 11.1578 2.65146 11.2937C2.55304 11.4296 2.4286 11.5445 2.28537 11.6318C2.14214 11.7192 1.98297 11.7772 1.81713 11.8024C1.65129 11.8277 1.48207 11.8197 1.31933 11.779C1.15659 11.7383 1.00356 11.6657 0.869153 11.5653C0.734744 11.4649 0.621633 11.3388 0.536397 11.1943C0.451161 11.0498 0.395501 10.8898 0.372654 10.7236C0.349807 10.5574 0.360229 10.3883 0.403312 10.2262C1.08598 7.49655 2.60449 5.04842 4.74659 3.22401C6.88868 1.3996 9.5473 0.290092 12.3508 0.0505838L12.3525 0.0488963ZM6.615 25.1116C8.42398 26.1838 10.4584 26.8186 12.5561 26.9654C14.6539 27.1122 16.7569 26.7669 18.6975 25.957C20.6382 25.1471 22.3628 23.8951 23.734 22.3007C25.1051 20.7064 26.0848 18.8137 26.595 16.7737C26.671 16.45 26.6165 16.1095 26.4435 15.8256C26.2704 15.5418 25.9925 15.3374 25.67 15.2567C25.3475 15.176 25.0062 15.2255 24.7198 15.3944C24.4335 15.5633 24.2251 15.8381 24.1397 16.1595C23.6197 18.2381 22.5023 20.1189 20.9254 21.5697C19.3486 23.0204 17.3813 23.9776 15.2666 24.3229C13.1519 24.6682 10.9824 24.3866 9.02595 23.5129C7.06949 22.6391 5.4118 21.2115 4.25756 19.4062H7.17188C7.50754 19.4062 7.82946 19.2729 8.06681 19.0355C8.30416 18.7982 8.4375 18.4762 8.4375 18.1406C8.4375 17.8049 8.30416 17.483 8.06681 17.2457C7.82946 17.0083 7.50754 16.875 7.17188 16.875H0V24.0468C0 24.3825 0.133342 24.7044 0.370693 24.9418C0.608044 25.1791 0.92996 25.3125 1.26562 25.3125C1.60129 25.3125 1.92321 25.1791 2.16056 24.9418C2.39791 24.7044 2.53125 24.3825 2.53125 24.0468V21.3705C3.61932 22.8863 5.00983 24.1602 6.615 25.1116Z" fill="#424242"/>
</g>
<defs>
<clipPath id="clip0_223_6">
<rect width="27" height="27" fill="white"/>
</clipPath>
</defs>
</svg>
